<svg xmlns="http://www.w3.org/2000/svg" version="1.1" xmlns:xlink="http://www.w3.org/1999/xlink" width="512" height="512" x="0" y="0" viewBox="0 0 512 512" style="enable-background:new 0 0 512 512" xml:space="preserve" class=""><g><linearGradient id="a"><stop offset=".032" stop-color="#43386b"></stop><stop offset=".127" stop-color="#463a70"></stop><stop offset=".659" stop-color="#544686"></stop><stop offset="1" stop-color="#594a8e"></stop></linearGradient><linearGradient xlink:href="#a" id="c" x1="120.159" x2="162.872" y1="322.286" y2="322.286" gradientUnits="userSpaceOnUse"></linearGradient><linearGradient id="b"><stop offset="0" stop-color="#594a8e"></stop><stop offset="1" stop-color="#7662bd"></stop></linearGradient><linearGradient xlink:href="#b" id="d" x1="121.065" x2="181.542" y1="287.515" y2="323.611" gradientUnits="userSpaceOnUse"></linearGradient><linearGradient xlink:href="#a" id="e" x1="87.027" x2="109.499" y1="182.931" y2="144.007" gradientUnits="userSpaceOnUse"></linearGradient><linearGradient xlink:href="#b" id="f" x1="157.28" x2="157.28" y1="326.452" y2="-128.555" gradientUnits="userSpaceOnUse"></linearGradient><linearGradient id="g" x1="157.28" x2="157.28" y1="302.238" y2="127.469" gradientUnits="userSpaceOnUse"><stop offset=".032" stop-color="#c5baeb"></stop><stop offset=".246" stop-color="#d0c7ee"></stop><stop offset=".706" stop-color="#e2ddf4"></stop><stop offset="1" stop-color="#e9e5f6"></stop></linearGradient><linearGradient xlink:href="#a" id="h" x1="201.228" x2="221.415" y1="427.441" y2="427.441" gradientUnits="userSpaceOnUse"></linearGradient><linearGradient xlink:href="#b" id="i" x1="43.216" x2="43.216" y1="830.19" y2="601.489" gradientTransform="rotate(-30 -218.158 847.218) skewX(30)" gradientUnits="userSpaceOnUse"></linearGradient><linearGradient xlink:href="#a" id="j" x1="118.392" x2="123.196" y1="427.037" y2="427.037" gradientUnits="userSpaceOnUse"></linearGradient><linearGradient xlink:href="#a" id="k" x1="136.8" x2="141.604" y1="416.409" y2="416.409" gradientUnits="userSpaceOnUse"></linearGradient><linearGradient xlink:href="#a" id="l" x1="155.208" x2="160.012" y1="405.781" y2="405.781" gradientUnits="userSpaceOnUse"></linearGradient><linearGradient xlink:href="#a" id="m" x1="173.616" x2="178.421" y1="395.154" y2="395.154" gradientUnits="userSpaceOnUse"></linearGradient><linearGradient xlink:href="#a" id="n" x1="192.025" x2="196.829" y1="384.526" y2="384.526" gradientUnits="userSpaceOnUse"></linearGradient><linearGradient xlink:href="#a" id="o" x1="210.433" x2="215.237" y1="373.898" y2="373.898" gradientUnits="userSpaceOnUse"></linearGradient><linearGradient xlink:href="#a" id="p" x1="228.841" x2="233.645" y1="363.271" y2="363.271" gradientUnits="userSpaceOnUse"></linearGradient><linearGradient xlink:href="#a" id="q" x1="247.249" x2="252.054" y1="352.643" y2="352.643" gradientUnits="userSpaceOnUse"></linearGradient><linearGradient xlink:href="#a" id="r" x1="265.658" x2="270.462" y1="342.016" y2="342.016" gradientUnits="userSpaceOnUse"></linearGradient><linearGradient xlink:href="#a" id="s" x1="284.066" x2="288.87" y1="331.388" y2="331.388" gradientUnits="userSpaceOnUse"></linearGradient><linearGradient xlink:href="#a" id="t" x1="140.292" x2="145.096" y1="439.639" y2="439.639" gradientUnits="userSpaceOnUse"></linearGradient><linearGradient xlink:href="#a" id="u" x1="158.7" x2="163.504" y1="429.011" y2="429.011" gradientUnits="userSpaceOnUse"></linearGradient><linearGradient xlink:href="#a" id="v" x1="177.108" x2="181.913" y1="418.383" y2="418.383" gradientUnits="userSpaceOnUse"></linearGradient><linearGradient xlink:href="#a" id="w" x1="195.517" x2="200.321" y1="407.756" y2="407.756" gradientUnits="userSpaceOnUse"></linearGradient><linearGradient xlink:href="#a" id="x" x1="213.925" x2="218.729" y1="397.128" y2="397.128" gradientUnits="userSpaceOnUse"></linearGradient><linearGradient xlink:href="#a" id="y" x1="232.333" x2="237.137" y1="386.501" y2="386.501" gradientUnits="userSpaceOnUse"></linearGradient><linearGradient xlink:href="#a" id="z" x1="250.741" x2="255.546" y1="375.873" y2="375.873" gradientUnits="userSpaceOnUse"></linearGradient><linearGradient xlink:href="#a" id="A" x1="269.15" x2="273.954" y1="365.245" y2="365.245" gradientUnits="userSpaceOnUse"></linearGradient><linearGradient xlink:href="#a" id="B" x1="287.558" x2="292.362" y1="354.618" y2="354.618" gradientUnits="userSpaceOnUse"></linearGradient><linearGradient xlink:href="#a" id="C" x1="305.966" x2="310.77" y1="343.99" y2="343.99" gradientUnits="userSpaceOnUse"></linearGradient><linearGradient xlink:href="#a" id="D" x1="161.4" x2="169.791" y1="449.824" y2="449.824" gradientUnits="userSpaceOnUse"></linearGradient><linearGradient xlink:href="#a" id="E" x1="191.958" x2="196.763" y1="435.099" y2="435.099" gradientUnits="userSpaceOnUse"></linearGradient><linearGradient xlink:href="#a" id="F" x1="224.163" x2="228.967" y1="441.892" y2="441.892" gradientUnits="userSpaceOnUse"></linearGradient><linearGradient xlink:href="#a" id="G" x1="205.992" x2="210.796" y1="477.613" y2="477.613" gradientUnits="userSpaceOnUse"></linearGradient><linearGradient xlink:href="#a" id="H" x1="224.4" x2="229.205" y1="467.043" y2="467.043" gradientUnits="userSpaceOnUse"></linearGradient><linearGradient xlink:href="#a" id="I" x1="242.809" x2="247.613" y1="456.472" y2="456.472" gradientUnits="userSpaceOnUse"></linearGradient><linearGradient xlink:href="#a" id="J" x1="259.951" x2="270.378" y1="425.333" y2="425.333" gradientUnits="userSpaceOnUse"></linearGradient><linearGradient xlink:href="#a" id="K" x1="353.258" x2="358.063" y1="392.647" y2="392.647" gradientUnits="userSpaceOnUse"></linearGradient><linearGradient xlink:href="#a" id="L" x1="371.667" x2="376.471" y1="381.961" y2="381.961" gradientUnits="userSpaceOnUse"></linearGradient><linearGradient xlink:href="#a" id="M" x1="183.515" x2="189.68" y1="459.489" y2="459.489" gradientUnits="userSpaceOnUse"></linearGradient><linearGradient xlink:href="#a" id="N" x1="242.571" x2="247.375" y1="431.206" y2="431.206" gradientUnits="userSpaceOnUse"></linearGradient><linearGradient xlink:href="#a" id="O" x1="260.979" x2="265.783" y1="420.636" y2="420.636" gradientUnits="userSpaceOnUse"></linearGradient><linearGradient xlink:href="#a" id="P" x1="279.387" x2="284.192" y1="410.066" y2="410.066" gradientUnits="userSpaceOnUse"></linearGradient><linearGradient xlink:href="#a" id="Q" x1="297.796" x2="302.6" y1="399.495" y2="399.495" gradientUnits="userSpaceOnUse"></linearGradient><linearGradient xlink:href="#a" id="R" x1="316.204" x2="321.008" y1="388.925" y2="388.925" gradientUnits="userSpaceOnUse"></linearGradient><linearGradient xlink:href="#a" id="S" x1="333.81" x2="340.48" y1="374.609" y2="374.609" gradientUnits="userSpaceOnUse"></linearGradient><linearGradient xlink:href="#a" id="T" x1="210.367" x2="215.171" y1="424.471" y2="424.471" gradientUnits="userSpaceOnUse"></linearGradient><linearGradient xlink:href="#a" id="U" x1="228.775" x2="233.579" y1="413.843" y2="413.843" gradientUnits="userSpaceOnUse"></linearGradient><linearGradient xlink:href="#a" id="V" x1="247.183" x2="251.987" y1="403.216" y2="403.216" gradientUnits="userSpaceOnUse"></linearGradient><linearGradient xlink:href="#a" id="W" x1="265.591" x2="270.396" y1="392.588" y2="392.588" gradientUnits="userSpaceOnUse"></linearGradient><linearGradient xlink:href="#a" id="X" x1="284" x2="288.804" y1="381.96" y2="381.96" gradientUnits="userSpaceOnUse"></linearGradient><linearGradient xlink:href="#a" id="Y" x1="302.408" x2="307.212" y1="371.333" y2="371.333" gradientUnits="userSpaceOnUse"></linearGradient><linearGradient xlink:href="#a" id="Z" x1="319.854" x2="326.192" y1="359.463" y2="359.463" gradientUnits="userSpaceOnUse"></linearGradient><linearGradient xlink:href="#a" id="aa" x1="312.05" x2="316.855" y1="315.285" y2="315.285" gradientUnits="userSpaceOnUse"></linearGradient><linearGradient xlink:href="#a" id="ab" x1="330.458" x2="335.263" y1="304.658" y2="304.658" gradientUnits="userSpaceOnUse"></linearGradient><linearGradient xlink:href="#a" id="ac" x1="348.867" x2="353.671" y1="294.03" y2="294.03" gradientUnits="userSpaceOnUse"></linearGradient><linearGradient xlink:href="#a" id="ad" x1="333.95" x2="338.755" y1="327.929" y2="327.929" gradientUnits="userSpaceOnUse"></linearGradient><linearGradient xlink:href="#a" id="ae" x1="352.359" x2="357.163" y1="317.302" y2="317.302" gradientUnits="userSpaceOnUse"></linearGradient><linearGradient xlink:href="#a" id="af" x1="370.767" x2="375.571" y1="306.674" y2="306.674" gradientUnits="userSpaceOnUse"></linearGradient><linearGradient xlink:href="#a" id="ag" x1="355.851" x2="360.655" y1="340.573" y2="340.573" gradientUnits="userSpaceOnUse"></linearGradient><linearGradient xlink:href="#a" id="ah" x1="374.259" x2="379.063" y1="329.946" y2="329.946" gradientUnits="userSpaceOnUse"></linearGradient><linearGradient xlink:href="#a" id="ai" x1="392.667" x2="397.471" y1="319.318" y2="319.318" gradientUnits="userSpaceOnUse"></linearGradient><linearGradient xlink:href="#a" id="aj" x1="377.751" x2="382.555" y1="353.217" y2="353.217" gradientUnits="userSpaceOnUse"></linearGradient><linearGradient xlink:href="#a" id="ak" x1="396.159" x2="400.963" y1="342.59" y2="342.59" gradientUnits="userSpaceOnUse"></linearGradient><linearGradient xlink:href="#a" id="al" x1="401.138" x2="409.007" y1="361.292" y2="361.292" gradientUnits="userSpaceOnUse"></linearGradient><linearGradient xlink:href="#a" id="am" x1="433.285" x2="441.736" y1="338.255" y2="338.255" gradientUnits="userSpaceOnUse"></linearGradient><linearGradient xlink:href="#b" id="an" x1="-86.74" x2="-86.74" y1="658.753" y2="638.676" gradientTransform="rotate(-30 -218.158 847.218) skewX(30)" gradientUnits="userSpaceOnUse"></linearGradient><linearGradient xlink:href="#b" id="ao" x1="-65.483" x2="-65.483" y1="658.754" y2="638.677" gradientTransform="rotate(-30 -218.158 847.218) skewX(30)" gradientUnits="userSpaceOnUse"></linearGradient><linearGradient xlink:href="#b" id="ap" x1="-44.227" x2="-44.227" y1="658.754" y2="638.677" gradientTransform="rotate(-30 -218.158 847.218) skewX(30)" gradientUnits="userSpaceOnUse"></linearGradient><linearGradient xlink:href="#b" id="aq" x1="-22.971" x2="-22.971" y1="658.754" y2="638.677" gradientTransform="rotate(-30 -218.158 847.218) skewX(30)" gradientUnits="userSpaceOnUse"></linearGradient><linearGradient xlink:href="#b" id="ar" x1="-1.714" x2="-1.714" y1="658.755" y2="638.677" gradientTransform="rotate(-30 -218.158 847.218) skewX(30)" gradientUnits="userSpaceOnUse"></linearGradient><linearGradient xlink:href="#b" id="as" x1="19.542" x2="19.542" y1="658.755" y2="638.678" gradientTransform="rotate(-30 -218.158 847.218) skewX(30)" gradientUnits="userSpaceOnUse"></linearGradient><linearGradient xlink:href="#b" id="at" x1="40.798" x2="40.798" y1="658.755" y2="638.678" gradientTransform="rotate(-30 -218.158 847.218) skewX(30)" gradientUnits="userSpaceOnUse"></linearGradient><linearGradient xlink:href="#b" id="au" x1="62.055" x2="62.055" y1="658.755" y2="638.678" gradientTransform="rotate(-30 -218.158 847.218) skewX(30)" gradientUnits="userSpaceOnUse"></linearGradient><linearGradient xlink:href="#b" id="av" x1="83.311" x2="83.311" y1="658.756" y2="638.679" gradientTransform="rotate(-30 -218.158 847.218) skewX(30)" gradientUnits="userSpaceOnUse"></linearGradient><linearGradient xlink:href="#b" id="aw" x1="104.567" x2="104.567" y1="658.756" y2="638.679" gradientTransform="rotate(-30 -218.158 847.218) skewX(30)" gradientUnits="userSpaceOnUse"></linearGradient><linearGradient xlink:href="#b" id="ax" x1="-86.739" x2="-86.739" y1="680.653" y2="660.576" gradientTransform="rotate(-30 -218.158 847.218) skewX(30)" gradientUnits="userSpaceOnUse"></linearGradient><linearGradient xlink:href="#b" id="ay" x1="-65.482" x2="-65.482" y1="680.653" y2="660.576" gradientTransform="rotate(-30 -218.158 847.218) skewX(30)" gradientUnits="userSpaceOnUse"></linearGradient><linearGradient xlink:href="#b" id="az" x1="-44.226" x2="-44.226" y1="680.653" y2="660.576" gradientTransform="rotate(-30 -218.158 847.218) skewX(30)" gradientUnits="userSpaceOnUse"></linearGradient><linearGradient xlink:href="#b" id="aA" x1="136.881" x2="136.881" y1="658.756" y2="638.679" gradientTransform="rotate(-30 -218.158 847.218) skewX(30)" gradientUnits="userSpaceOnUse"></linearGradient><linearGradient xlink:href="#b" id="aB" x1="158.138" x2="158.138" y1="658.757" y2="638.679" gradientTransform="rotate(-30 -218.158 847.218) skewX(30)" gradientUnits="userSpaceOnUse"></linearGradient><linearGradient xlink:href="#b" id="aC" x1="179.394" x2="179.394" y1="658.757" y2="638.68" gradientTransform="rotate(-30 -218.158 847.218) skewX(30)" gradientUnits="userSpaceOnUse"></linearGradient><linearGradient xlink:href="#b" id="aD" x1="136.883" x2="136.883" y1="680.656" y2="660.578" gradientTransform="rotate(-30 -218.158 847.218) skewX(30)" gradientUnits="userSpaceOnUse"></linearGradient><linearGradient xlink:href="#b" id="aE" x1="158.139" x2="158.139" y1="680.656" y2="660.579" gradientTransform="rotate(-30 -218.158 847.218) skewX(30)" gradientUnits="userSpaceOnUse"></linearGradient><linearGradient xlink:href="#b" id="aF" x1="179.395" x2="179.395" y1="680.656" y2="660.579" gradientTransform="rotate(-30 -218.158 847.218) skewX(30)" gradientUnits="userSpaceOnUse"></linearGradient><linearGradient xlink:href="#b" id="aG" x1="136.884" x2="136.884" y1="702.555" y2="682.478" gradientTransform="rotate(-30 -218.158 847.218) skewX(30)" gradientUnits="userSpaceOnUse"></linearGradient><linearGradient xlink:href="#b" id="aH" x1="158.14" x2="158.14" y1="702.555" y2="682.478" gradientTransform="rotate(-30 -218.158 847.218) skewX(30)" gradientUnits="userSpaceOnUse"></linearGradient><linearGradient xlink:href="#b" id="aI" x1="179.396" x2="179.396" y1="702.555" y2="682.478" gradientTransform="rotate(-30 -218.158 847.218) skewX(30)" gradientUnits="userSpaceOnUse"></linearGradient><linearGradient xlink:href="#b" id="aJ" x1="136.885" x2="136.885" y1="724.454" y2="704.377" gradientTransform="rotate(-30 -218.158 847.218) skewX(30)" gradientUnits="userSpaceOnUse"></linearGradient><linearGradient xlink:href="#b" id="aK" x1="158.141" x2="158.141" y1="724.454" y2="704.377" gradientTransform="rotate(-30 -218.158 847.218) skewX(30)" gradientUnits="userSpaceOnUse"></linearGradient><linearGradient xlink:href="#b" id="aL" x1="179.398" x2="179.398" y1="749.937" y2="703.938" gradientTransform="rotate(-30 -218.158 847.218) skewX(30)" gradientUnits="userSpaceOnUse"></linearGradient><linearGradient xlink:href="#b" id="aM" x1="147.514" x2="147.514" y1="746.354" y2="726.276" gradientTransform="rotate(-30 -218.158 847.218) skewX(30)" gradientUnits="userSpaceOnUse"></linearGradient><linearGradient xlink:href="#b" id="aN" x1="-22.97" x2="-22.97" y1="680.654" y2="660.576" gradientTransform="rotate(-30 -218.158 847.218) skewX(30)" gradientUnits="userSpaceOnUse"></linearGradient><linearGradient xlink:href="#b" id="aO" x1="-1.713" x2="-1.713" y1="680.654" y2="660.577" gradientTransform="rotate(-30 -218.158 847.218) skewX(30)" gradientUnits="userSpaceOnUse"></linearGradient><linearGradient xlink:href="#b" id="aP" x1="19.543" x2="19.543" y1="680.654" y2="660.577" gradientTransform="rotate(-30 -218.158 847.218) skewX(30)" gradientUnits="userSpaceOnUse"></linearGradient><linearGradient xlink:href="#b" id="aQ" x1="40.8" x2="40.8" y1="680.654" y2="660.577" gradientTransform="rotate(-30 -218.158 847.218) skewX(30)" gradientUnits="userSpaceOnUse"></linearGradient><linearGradient xlink:href="#b" id="aR" x1="62.056" x2="62.056" y1="680.655" y2="660.578" gradientTransform="rotate(-30 -218.158 847.218) skewX(30)" gradientUnits="userSpaceOnUse"></linearGradient><linearGradient xlink:href="#b" id="aS" x1="83.312" x2="83.312" y1="680.655" y2="660.578" gradientTransform="rotate(-30 -218.158 847.218) skewX(30)" gradientUnits="userSpaceOnUse"></linearGradient><linearGradient xlink:href="#b" id="aT" x1="104.569" x2="104.569" y1="680.655" y2="660.578" gradientTransform="rotate(-30 -218.158 847.218) skewX(30)" gradientUnits="userSpaceOnUse"></linearGradient><linearGradient xlink:href="#b" id="aU" x1="-80.189" x2="-80.189" y1="702.552" y2="682.475" gradientTransform="rotate(-30 -218.158 847.218) skewX(30)" gradientUnits="userSpaceOnUse"></linearGradient><linearGradient xlink:href="#b" id="aV" x1="-52.384" x2="-52.384" y1="702.552" y2="682.475" gradientTransform="rotate(-30 -218.158 847.218) skewX(30)" gradientUnits="userSpaceOnUse"></linearGradient><linearGradient xlink:href="#b" id="aW" x1="-31.128" x2="-31.128" y1="702.553" y2="682.476" gradientTransform="rotate(-30 -218.158 847.218) skewX(30)" gradientUnits="userSpaceOnUse"></linearGradient><linearGradient xlink:href="#b" id="aX" x1="-9.871" x2="-9.871" y1="702.553" y2="682.476" gradientTransform="rotate(-30 -218.158 847.218) skewX(30)" gradientUnits="userSpaceOnUse"></linearGradient><linearGradient xlink:href="#b" id="aY" x1="11.385" x2="11.385" y1="702.553" y2="682.476" gradientTransform="rotate(-30 -218.158 847.218) skewX(30)" gradientUnits="userSpaceOnUse"></linearGradient><linearGradient xlink:href="#b" id="aZ" x1="32.642" x2="32.642" y1="702.553" y2="682.476" gradientTransform="rotate(-30 -218.158 847.218) skewX(30)" gradientUnits="userSpaceOnUse"></linearGradient><linearGradient xlink:href="#b" id="ba" x1="53.898" x2="53.898" y1="702.554" y2="682.477" gradientTransform="rotate(-30 -218.158 847.218) skewX(30)" gradientUnits="userSpaceOnUse"></linearGradient><linearGradient xlink:href="#b" id="bb" x1="75.154" x2="75.154" y1="702.554" y2="682.477" gradientTransform="rotate(-30 -218.158 847.218) skewX(30)" gradientUnits="userSpaceOnUse"></linearGradient><linearGradient xlink:href="#b" id="bc" x1="100.49" x2="100.49" y1="702.554" y2="682.477" gradientTransform="rotate(-30 -218.158 847.218) skewX(30)" gradientUnits="userSpaceOnUse"></linearGradient><linearGradient xlink:href="#b" id="bd" x1="-74.23" x2="-74.23" y1="724.451" y2="704.374" gradientTransform="rotate(-30 -218.158 847.218) skewX(30)" gradientUnits="userSpaceOnUse"></linearGradient><linearGradient xlink:href="#b" id="be" x1="-40.466" x2="-40.466" y1="724.452" y2="704.375" gradientTransform="rotate(-30 -218.158 847.218) skewX(30)" gradientUnits="userSpaceOnUse"></linearGradient><linearGradient xlink:href="#b" id="bf" x1="-19.21" x2="-19.21" y1="724.452" y2="704.375" gradientTransform="rotate(-30 -218.158 847.218) skewX(30)" gradientUnits="userSpaceOnUse"></linearGradient><linearGradient xlink:href="#b" id="bg" x1="2.046" x2="2.046" y1="724.452" y2="704.375" gradientTransform="rotate(-30 -218.158 847.218) skewX(30)" gradientUnits="userSpaceOnUse"></linearGradient><linearGradient xlink:href="#b" id="bh" x1="23.303" x2="23.303" y1="724.453" y2="704.375" gradientTransform="rotate(-30 -218.158 847.218) skewX(30)" gradientUnits="userSpaceOnUse"></linearGradient><linearGradient xlink:href="#b" id="bi" x1="44.559" x2="44.559" y1="724.453" y2="704.376" gradientTransform="rotate(-30 -218.158 847.218) skewX(30)" gradientUnits="userSpaceOnUse"></linearGradient><linearGradient xlink:href="#b" id="bj" x1="65.815" x2="65.815" y1="724.453" y2="704.376" gradientTransform="rotate(-30 -218.158 847.218) skewX(30)" gradientUnits="userSpaceOnUse"></linearGradient><linearGradient xlink:href="#b" id="bk" x1="95.821" x2="95.821" y1="724.454" y2="704.376" gradientTransform="rotate(-30 -218.158 847.218) skewX(30)" gradientUnits="userSpaceOnUse"></linearGradient><linearGradient xlink:href="#b" id="bl" x1="-86.735" x2="-86.735" y1="746.35" y2="726.273" gradientTransform="rotate(-30 -218.158 847.218) skewX(30)" gradientUnits="userSpaceOnUse"></linearGradient><linearGradient xlink:href="#b" id="bm" x1="-65.479" x2="-65.479" y1="746.351" y2="726.273" gradientTransform="rotate(-30 -218.158 847.218) skewX(30)" gradientUnits="userSpaceOnUse"></linearGradient><linearGradient xlink:href="#b" id="bn" x1="-44.223" x2="-44.223" y1="746.351" y2="726.274" gradientTransform="rotate(-30 -218.158 847.218) skewX(30)" gradientUnits="userSpaceOnUse"></linearGradient><linearGradient xlink:href="#b" id="bo" x1="83.315" x2="83.315" y1="746.353" y2="726.275" gradientTransform="rotate(-30 -218.158 847.218) skewX(30)" gradientUnits="userSpaceOnUse"></linearGradient><linearGradient xlink:href="#b" id="bp" x1="104.572" x2="104.572" y1="746.353" y2="726.276" gradientTransform="rotate(-30 -218.158 847.218) skewX(30)" gradientUnits="userSpaceOnUse"></linearGradient><linearGradient xlink:href="#b" id="bq" x1="19.546" x2="19.546" y1="746.352" y2="726.274" gradientTransform="rotate(-30 -218.158 847.218) skewX(30)" gradientUnits="userSpaceOnUse"></linearGradient><linearGradient xlink:href="#b" id="br" x1="432.067" x2="444.644" y1="278.708" y2="239.972" gradientUnits="userSpaceOnUse"></linearGradient><linearGradient xlink:href="#b" id="bs" x1="422.762" x2="412.794" y1="250.962" y2="312.38" gradientUnits="userSpaceOnUse"></linearGradient><linearGradient id="bt" x1="415.406" x2="402.762" y1="234.092" y2="226.791" gradientUnits="userSpaceOnUse"><stop offset=".032" stop-color="#a996eb"></stop><stop offset=".399" stop-color="#bfb3eb"></stop><stop offset=".765" stop-color="#d1c9eb"></stop><stop offset="1" stop-color="#d7d1eb"></stop></linearGradient><path fill="#7662bd" d="m137.956 408.684-14.582-8.419c-3.335-1.926-5.325-5.374-5.325-9.225s1.99-7.299 5.325-9.224l149.049-86.053c2.784-1.608 4.431-4.487 4.404-7.701-.025-3.215-1.719-6.067-4.528-7.63l-44.379-24.676 2.744-4.934 44.379 24.676c4.609 2.564 7.388 7.243 7.43 12.518.043 5.275-2.659 9.999-7.228 12.636l-149.049 86.053c-1.566.905-2.503 2.525-2.503 4.335s.937 3.43 2.503 4.335l14.582 8.418z" opacity="1" data-original="#7662bd" class=""></path><path fill="#7662bd" d="m205.589 262.393-2.822-4.89 90.65-52.337c13.375-7.721 29.992-7.721 43.367 0l72.875 42.076-2.822 4.889-72.875-42.075c-11.633-6.716-26.086-6.717-37.723 0z" opacity="1" data-original="#7662bd" class=""></path><path fill="url(#a)" d="M214.557 302.847c-.003-.222 0-9.441 0-9.441L69.184 306.738v8.544h.004c.032 9.609 5.849 18.781 17.725 25.638 26.286 15.176 72.202 13.273 102.555-4.251 16.571-9.567 25.057-21.811 25.088-33.428v-.394z" opacity="1" data-original="url(#a)" class=""></path><path fill="url(#b)" d="M189.468 327.413c30.353-17.524 33.65-44.034 7.363-59.21-26.287-15.177-72.202-13.273-102.555 4.251s-33.65 44.034-7.363 59.21 72.202 13.274 102.555-4.251z" opacity="1" data-original="url(#b)" class=""></path><path fill="url(#a)" d="M278.379 11.748 260.483 1.161c-2.518-1.648-5.882-1.603-9.579.532L28.053 130.906c-7.799 4.503-14.121 16.582-14.121 26.98v182.698c0 6.143 2.207 10.323 5.621 11.789l11.168 6.661 5.291 3.097z" opacity="1" data-original="url(#a)" class=""></path><path fill="url(#b)" d="M268.705 12.215 45.854 141.428c-7.799 4.503-14.121 16.582-14.121 26.98v182.698c0 10.398 6.322 15.177 14.121 10.675l222.851-129.214c7.799-4.503 14.121-16.582 14.121-26.98V22.89c0-10.399-6.322-15.178-14.121-10.675z" opacity="1" data-original="url(#b)" class=""></path><path fill="url(#g)" d="M258.975 32.449 55.585 150.427c-7.034 4.061-12.737 14.957-12.737 24.337V330.11c0 9.379 5.703 13.69 12.737 9.629l203.389-117.978c7.034-4.061 12.737-14.957 12.737-24.336V42.078c.001-9.379-5.702-13.69-12.736-9.629z" opacity="1" data-original="url(#g)" class=""></path><path fill="url(#a)" d="m473.962 358.249-.007-15.366-390.088 82.144v15.286l.007-.002c.042 1.553 1.158 3.178 3.37 4.455l113.043 65.266c4.121 2.38 10.354 2.638 13.923.577l257.344-148.578c1.733-1.001 2.501-2.366 2.378-3.776z" opacity="1" data-original="url(#a)" class=""></path><path fill="url(#b)" d="M343.588 272.508 86.244 421.085c-3.568 2.06-3.121 5.659 1 8.038l113.044 65.266c4.121 2.379 10.354 2.637 13.923.577l257.344-148.578c3.569-2.06 3.121-5.659-1-8.038L357.51 273.085c-4.12-2.379-10.354-2.637-13.922-.577z" opacity="1" data-original="url(#b)" class=""></path><path fill="url(#a)" d="m133.965 422.497-28.853-1.548.003 3.079h.013c-.015.554.369 1.141 1.161 1.599l11.809 6.817c1.423.822 3.576.911 4.808.199l10.227-5.904c.532-.307.79-.715.814-1.143l.017.001v-3.1z" opacity="1" data-original="url(#a)" class=""></path><path fill="url(#a)" d="m152.373 411.869-28.853-1.548.003 3.079h.012c-.015.554.369 1.141 1.161 1.599l11.809 6.817c1.423.822 3.576.911 4.808.199l10.227-5.904c.532-.307.79-.715.814-1.143l.018.001v-3.1z" opacity="1" data-original="url(#a)" class=""></path><path fill="url(#a)" d="m170.782 401.241-28.853-1.548.003 3.079h.013c-.015.554.369 1.141 1.161 1.599l11.809 6.817c1.423.822 3.576.911 4.808.199l10.227-5.904c.532-.307.79-.715.814-1.143l.017.001v-3.1z" opacity="1" data-original="url(#a)" class=""></path><path fill="url(#a)" d="m189.19 390.614-28.853-1.548.003 3.08h.013c-.015.554.369 1.141 1.161 1.599l11.809 6.817c1.423.822 3.576.911 4.808.199l10.227-5.904c.532-.307.79-.715.814-1.143l.017.001v-3.101z" opacity="1" data-original="url(#a)" class=""></path><path fill="url(#a)" d="m207.598 379.986-28.853-1.548.003 3.079h.013c-.015.554.369 1.141 1.161 1.599l11.809 6.817c1.423.822 3.576.911 4.808.199l10.227-5.904c.532-.307.79-.715.814-1.143l.017.001v-3.1z" opacity="1" data-original="url(#a)" class=""></path><path fill="url(#a)" d="m226.006 369.358-28.853-1.548.003 3.079h.012c-.015.554.369 1.141 1.161 1.599l11.809 6.817c1.423.822 3.576.911 4.808.199l10.227-5.904c.532-.307.79-.715.814-1.143l.017.001v-3.1z" opacity="1" data-original="url(#a)" class=""></path><path fill="url(#a)" d="m244.415 358.731-28.853-1.548.003 3.079h.013c-.015.554.369 1.141 1.161 1.599l11.809 6.817c1.423.822 3.576.911 4.808.199l10.227-5.904c.532-.307.79-.715.814-1.143l.017.001v-3.1z" opacity="1" data-original="url(#a)" class=""></path><path fill="url(#a)" d="m262.823 348.103-28.853-1.548.003 3.079h.013c-.015.554.369 1.141 1.161 1.599l11.809 6.817c1.423.822 3.576.911 4.808.199l10.227-5.904c.532-.307.79-.715.814-1.143l.017.001v-3.1z" opacity="1" data-original="url(#a)" class=""></path><path fill="url(#a)" d="m281.231 337.476-28.853-1.548.003 3.079h.013c-.015.554.369 1.141 1.161 1.599l11.809 6.817c1.423.822 3.576.911 4.808.199l10.227-5.904c.532-.307.79-.715.814-1.143l.017.001v-3.1z" opacity="1" data-original="url(#a)" class=""></path><path fill="url(#a)" d="m299.639 326.848-28.853-1.548.003 3.079h.013c-.015.554.369 1.141 1.161 1.599l11.809 6.817c1.423.822 3.576.911 4.808.199l10.227-5.904c.532-.307.79-.715.814-1.143l.017.001v-3.1z" opacity="1" data-original="url(#a)" class=""></path><path fill="url(#a)" d="m155.865 435.099-28.853-1.548.003 3.08h.012c-.015.554.369 1.141 1.161 1.599l11.809 6.817c1.423.822 3.576.911 4.808.199l10.227-5.904c.532-.307.79-.715.814-1.143l.018.001v-3.101z" opacity="1" data-original="url(#a)" class=""></path><path fill="url(#a)" d="m174.273 424.471-28.853-1.548.003 3.079h.013c-.015.554.369 1.141 1.161 1.599l11.809 6.817c1.423.822 3.576.911 4.808.199l10.227-5.904c.532-.307.79-.715.814-1.143l.017.001v-3.1z" opacity="1" data-original="url(#a)" class=""></path><path fill="url(#a)" d="m192.682 413.843-28.853-1.548.003 3.079h.013c-.015.554.369 1.141 1.161 1.599l11.809 6.817c1.423.822 3.576.911 4.808.199l10.227-5.904c.532-.307.79-.715.815-1.143l.017.001z" opacity="1" data-original="url(#a)" class=""></path><path fill="url(#a)" d="m211.09 403.216-28.853-1.548.003 3.079h.013c-.015.554.369 1.141 1.161 1.599l11.809 6.817c1.423.822 3.576.911 4.808.199l10.227-5.904c.532-.307.79-.715.814-1.143l.017.001v-3.1z" opacity="1" data-original="url(#a)" class=""></path><path fill="url(#a)" d="m229.498 392.588-28.853-1.548.003 3.079h.012c-.015.554.369 1.141 1.161 1.599l11.809 6.817c1.423.822 3.576.911 4.808.199l10.227-5.904c.532-.307.79-.715.814-1.143l.018.001v-3.1z" opacity="1" data-original="url(#a)" class=""></path><path fill="url(#a)" d="m247.907 381.961-28.853-1.548.003 3.08h.013c-.015.554.369 1.141 1.161 1.599l11.809 6.817c1.423.822 3.576.911 4.808.199l10.227-5.904c.532-.307.79-.715.814-1.143l.017.001v-3.101z" opacity="1" data-original="url(#a)" class=""></path><path fill="url(#a)" d="m266.315 371.333-28.853-1.548.003 3.079h.013c-.015.554.369 1.141 1.161 1.599l11.809 6.817c1.423.822 3.576.911 4.808.199l10.227-5.904c.532-.307.79-.715.815-1.143l.017.001z" opacity="1" data-original="url(#a)" class=""></path><path fill="url(#a)" d="m284.723 360.705-28.853-1.548.003 3.079h.013c-.015.554.369 1.141 1.161 1.599l11.809 6.817c1.423.822 3.576.911 4.808.199l10.227-5.904c.532-.307.79-.715.815-1.143l.017.001z" opacity="1" data-original="url(#a)" class=""></path><path fill="url(#a)" d="m303.131 350.078-28.853-1.548.003 3.08h.013c-.015.554.369 1.141 1.161 1.599l11.809 6.817c1.423.822 3.576.911 4.808.199l10.227-5.904c.532-.307.79-.715.814-1.143l.017.001v-3.101z" opacity="1" data-original="url(#a)" class=""></path><path fill="url(#a)" d="m321.54 339.45-28.853-1.548.003 3.079h.013c-.015.554.369 1.141 1.161 1.599l11.809 6.817c1.423.822 3.576.911 4.808.199l10.227-5.904c.532-.307.79-.715.814-1.143l.017.001v-3.1z" opacity="1" data-original="url(#a)" class=""></path><path fill="url(#a)" d="m189.108 441.236-40.195 5.001.003 3.079h.013c-.015.554.369 1.141 1.161 1.599l11.809 6.817c1.423.822 3.576.911 4.808.199l21.569-12.453c.532-.307.79-.715.814-1.143l.017.001v-3.1z" opacity="1" data-original="url(#a)" class=""></path><path fill="url(#a)" d="m207.532 430.559-28.853-1.548.003 3.079h.013c-.015.554.369 1.141 1.161 1.599l11.809 6.817c1.423.822 3.576.911 4.808.199l10.227-5.904c.532-.307.79-.715.814-1.143l.017.001v-3.1z" opacity="1" data-original="url(#a)" class=""></path><path fill="url(#a)" d="m239.736 437.352-28.853-1.548.003 3.079h.013c-.015.554.369 1.141 1.161 1.599l11.809 6.817c1.423.822 3.576.911 4.808.199l10.227-5.904c.532-.307.79-.715.814-1.143l.017.001v-3.1z" opacity="1" data-original="url(#a)" class=""></path><path fill="url(#a)" d="m221.566 473.073-28.853-1.548.003 3.079h.013c-.015.554.369 1.141 1.161 1.599l11.809 6.817c1.423.821 3.576.911 4.808.199l10.227-5.904c.532-.307.79-.715.814-1.143l.017.001v-3.1z" opacity="1" data-original="url(#a)" class=""></path><path fill="url(#a)" d="m239.974 462.503-28.853-1.548.003 3.079h.013c-.015.554.369 1.141 1.161 1.599l11.809 6.817c1.423.822 3.576.911 4.808.2l10.227-5.904c.532-.307.79-.715.814-1.143l.017.001v-3.101z" opacity="1" data-original="url(#a)" class=""></path><path fill="url(#a)" d="m258.382 451.932-28.853-1.548.003 3.08h.012c-.015.554.369 1.141 1.161 1.599l11.809 6.817c1.423.822 3.576.911 4.808.199l10.227-5.904c.532-.307.79-.715.814-1.143l.017.001v-3.101z" opacity="1" data-original="url(#a)" class=""></path><path fill="url(#a)" d="m350.423 398.676-102.486 41.138.003 3.079h.013c-.015.554.369 1.141 1.161 1.599l11.809 6.817c1.423.822 3.576.911 4.808.199l83.86-48.59c.532-.307.79-.715.814-1.143l.017.001v-3.1z" opacity="1" data-original="url(#a)" class=""></path><path fill="url(#a)" d="m368.832 388.107-28.853-1.548.003 3.08h.013c-.015.554.369 1.141 1.161 1.599l11.809 6.817c1.423.822 3.576.911 4.808.199L368 392.35c.532-.307.79-.715.814-1.143l.017.001v-3.101z" opacity="1" data-original="url(#a)" class=""></path><path fill="url(#a)" d="m387.24 377.421-28.853-1.548.003 3.079h.013c-.015.554.369 1.141 1.161 1.599l11.809 6.817c1.423.822 3.576.911 4.808.199l10.227-5.904c.532-.307.79-.715.815-1.143l.017.001z" opacity="1" data-original="url(#a)" class=""></path><path fill="url(#a)" d="m221.328 447.922-50.515 10.96.003 3.079h.013c-.015.554.369 1.141 1.161 1.599l11.809 6.817c1.423.822 3.576.911 4.808.199l31.889-18.411c.532-.307.79-.715.814-1.143l.017.001v-3.101z" opacity="1" data-original="url(#a)" class=""></path><path fill="url(#a)" d="m258.144 426.666-28.853-1.548.003 3.079h.012c-.015.554.369 1.141 1.161 1.599l11.809 6.817c1.423.822 3.576.911 4.808.199l10.227-5.904c.532-.307.79-.715.814-1.143l.017.001v-3.1z" opacity="1" data-original="url(#a)" class=""></path><path fill="url(#a)" d="m276.553 416.096-28.853-1.548.003 3.079h.013c-.015.554.369 1.141 1.161 1.599l11.809 6.817c1.423.822 3.576.911 4.808.2l10.227-5.904c.532-.307.79-.715.815-1.143l.017.001z" opacity="1" data-original="url(#a)" class=""></path><path fill="url(#a)" d="m294.961 405.526-28.853-1.548.003 3.08h.013c-.015.554.369 1.141 1.161 1.599l11.809 6.817c1.423.822 3.576.911 4.808.199l10.227-5.904c.532-.307.79-.715.815-1.143l.017.001z" opacity="1" data-original="url(#a)" class=""></path><path fill="url(#a)" d="m313.369 394.955-28.853-1.548.003 3.079h.013c-.015.554.369 1.141 1.161 1.599l11.809 6.817c1.423.822 3.576.911 4.808.199l10.227-5.904c.532-.307.79-.715.814-1.143l.017.001v-3.1z" opacity="1" data-original="url(#a)" class=""></path><path fill="url(#a)" d="m331.777 384.385-28.853-1.548.003 3.079h.013c-.015.554.369 1.141 1.161 1.599l11.809 6.817c1.423.822 3.576.911 4.808.199l10.227-5.904c.532-.307.79-.715.815-1.143l.017.001z" opacity="1" data-original="url(#a)" class=""></path><path fill="url(#a)" d="m365.34 364.776-44.007 7.49.003 3.079h.013c-.015.554.369 1.141 1.161 1.599l11.809 6.817c1.423.822 3.576.911 4.808.199l25.381-14.942c.532-.307.79-.715.814-1.143l.017.001v-3.1z" opacity="1" data-original="url(#a)" class=""></path><path fill="url(#a)" d="m225.94 419.931-28.853-1.548.003 3.079h.013c-.015.554.369 1.141 1.161 1.599l11.809 6.817c1.423.822 3.576.911 4.808.199l10.227-5.904c.532-.307.79-.715.814-1.143l.018.001z" opacity="1" data-original="url(#a)" class=""></path><path fill="url(#a)" d="m244.348 409.303-28.853-1.548.003 3.08h.012c-.015.554.369 1.141 1.161 1.599l11.809 6.817c1.423.822 3.576.911 4.808.2l10.227-5.904c.532-.307.79-.715.814-1.143l.017.001v-3.102z" opacity="1" data-original="url(#a)" class=""></path><path fill="url(#a)" d="m262.757 398.676-28.853-1.548.003 3.079h.013c-.015.554.369 1.141 1.161 1.599l11.809 6.817c1.423.822 3.576.911 4.808.199l10.227-5.904c.532-.307.79-.715.814-1.143l.017.001v-3.1z" opacity="1" data-original="url(#a)" class=""></path><path fill="url(#a)" d="m281.165 388.048-28.853-1.548.003 3.079h.013c-.015.554.369 1.141 1.161 1.599l11.809 6.817c1.423.822 3.576.911 4.808.199l10.227-5.904c.532-.307.79-.715.815-1.143l.017.001z" opacity="1" data-original="url(#a)" class=""></path><path fill="url(#a)" d="m299.573 377.42-28.853-1.548.003 3.08h.013c-.015.554.369 1.141 1.161 1.599l11.809 6.817c1.423.821 3.576.911 4.808.199l10.227-5.904c.532-.307.79-.715.814-1.143l.017.001v-3.101z" opacity="1" data-original="url(#a)" class=""></path><path fill="url(#a)" d="m317.981 366.793-28.853-1.548.003 3.079h.013c-.015.554.369 1.141 1.161 1.599l11.809 6.817c1.423.822 3.576.911 4.808.199l10.227-5.904c.532-.307.79-.715.814-1.143l.017.001v-3.1z" opacity="1" data-original="url(#a)" class=""></path><path fill="url(#a)" d="m343.44 352.132-35.902 2.485.003 3.079h.013c-.015.554.369 1.141 1.161 1.599l11.809 6.817c1.423.822 3.576.911 4.808.199l17.277-9.937c.532-.307.79-.715.814-1.143l.017.001z" opacity="1" data-original="url(#a)" class=""></path><path fill="url(#a)" d="m327.624 310.745-28.853-1.548.003 3.079h.013c-.015.554.369 1.141 1.161 1.599l11.809 6.817c1.423.822 3.576.911 4.808.199l10.227-5.904c.532-.307.79-.715.814-1.143l.018.001z" opacity="1" data-original="url(#a)" class=""></path><path fill="url(#a)" d="m346.032 300.118-28.853-1.548.003 3.079h.013c-.015.554.369 1.141 1.161 1.599l11.809 6.817c1.423.822 3.576.911 4.808.199l10.227-5.904c.532-.307.79-.715.814-1.143l.017.001v-3.1z" opacity="1" data-original="url(#a)" class=""></path><path fill="url(#a)" d="m364.44 289.49-28.853-1.548.003 3.079h.013c-.015.554.369 1.141 1.161 1.599l11.809 6.817c1.423.822 3.576.911 4.808.199l10.227-5.904c.532-.307.79-.715.815-1.143l.017.001z" opacity="1" data-original="url(#a)" class=""></path><path fill="url(#a)" d="m349.524 323.389-28.853-1.548.003 3.079h.013c-.015.554.369 1.141 1.161 1.599l11.809 6.817c1.423.822 3.576.911 4.808.199l10.227-5.904c.532-.307.79-.715.814-1.143l.017.001v-3.1z" opacity="1" data-original="url(#a)" class=""></path><path fill="url(#a)" d="m367.932 312.762-28.853-1.548.003 3.079h.013c-.015.554.369 1.141 1.161 1.599l11.809 6.817c1.423.822 3.576.911 4.808.199l10.227-5.904c.532-.307.79-.715.814-1.143l.017.001v-3.1z" opacity="1" data-original="url(#a)" class=""></path><path fill="url(#a)" d="m386.34 302.134-28.853-1.548.003 3.079h.012c-.015.554.369 1.141 1.161 1.599l11.809 6.817c1.423.822 3.576.911 4.808.199l10.227-5.904c.532-.307.79-.715.814-1.143l.018.001v-3.1z" opacity="1" data-original="url(#a)" class=""></path><path fill="url(#a)" d="m371.424 336.033-28.853-1.548.003 3.079h.013c-.015.554.369 1.141 1.161 1.599l11.809 6.817c1.423.822 3.576.911 4.808.199l10.227-5.904c.532-.307.79-.715.814-1.143l.017.001v-3.1z" opacity="1" data-original="url(#a)" class=""></path><path fill="url(#a)" d="m389.832 325.406-28.853-1.548.003 3.08h.013c-.015.554.369 1.141 1.161 1.599l11.809 6.817c1.423.822 3.576.911 4.808.199L389 329.649c.532-.307.79-.715.814-1.143l.017.001v-3.101z" opacity="1" data-original="url(#a)" class=""></path><path fill="url(#a)" d="m408.241 314.778-28.853-1.548.003 3.079h.013c-.015.554.369 1.141 1.161 1.599l11.809 6.817c1.423.822 3.576.911 4.808.199l10.227-5.904c.532-.307.79-.715.814-1.143l.017.001v-3.1z" opacity="1" data-original="url(#a)" class=""></path><path fill="url(#a)" d="m393.324 348.677-28.853-1.548.003 3.08h.013c-.015.554.369 1.141 1.161 1.599l11.809 6.817c1.423.822 3.576.911 4.808.199l10.227-5.904c.532-.307.79-.715.814-1.143l.017.001v-3.101z" opacity="1" data-original="url(#a)" class=""></path><path fill="url(#a)" d="m411.732 338.05-28.853-1.548.003 3.079h.013c-.015.554.369 1.141 1.161 1.599l11.809 6.817c1.423.822 3.576.911 4.808.199l10.227-5.904c.532-.307.79-.715.815-1.143l.017.001z" opacity="1" data-original="url(#a)" class=""></path><path fill="url(#a)" d="m433.633 350.636-47.261 9.138.003 3.079h.013c-.015.554.369 1.141 1.161 1.599l11.809 6.817c1.423.822 3.576.911 4.808.199l28.635-16.59c.532-.307.79-.715.814-1.143l.017.001v-3.1z" opacity="1" data-original="url(#a)" class=""></path><path fill="url(#a)" d="m452.041 340.066-50.753-14.25.003 3.079h.013c-.015.554.369 1.141 1.161 1.599l33.709 19.52c1.423.822 3.576.911 4.808.199l10.227-5.904c.532-.307.79-.715.814-1.143l.017.001v-3.101z" opacity="1" data-original="url(#a)" class=""></path><path fill="url(#b)" d="m116.171 413.834-10.227 5.905c-1.232.711-1.078 1.954.345 2.776l11.809 6.818c1.423.822 3.576.911 4.808.199l10.227-5.904c1.232-.711 1.078-1.954-.345-2.776l-11.809-6.818c-1.423-.823-3.575-.912-4.808-.2z" opacity="1" data-original="url(#b)" class=""></path><path fill="url(#b)" d="m134.579 403.206-10.227 5.904c-1.232.711-1.078 1.954.345 2.776l11.809 6.818c1.423.822 3.576.911 4.808.199l10.227-5.905c1.232-.711 1.078-1.954-.345-2.776l-11.809-6.818c-1.423-.821-3.575-.91-4.808-.198z" opacity="1" data-original="url(#b)" class=""></path><path fill="url(#b)" d="m152.988 392.578-10.227 5.904c-1.232.711-1.078 1.954.345 2.776l11.809 6.818c1.423.822 3.575.911 4.808.199l10.227-5.905c1.232-.711 1.078-1.954-.345-2.776l-11.809-6.818c-1.423-.821-3.576-.91-4.808-.198z" opacity="1" data-original="url(#b)" class=""></path><path fill="url(#b)" d="m171.396 381.949-10.227 5.904c-1.232.712-1.078 1.954.345 2.776l11.809 6.818c1.423.822 3.576.911 4.808.199l10.227-5.904c1.232-.712 1.078-1.954-.345-2.776l-11.809-6.818c-1.423-.821-3.576-.91-4.808-.199z" opacity="1" data-original="url(#b)" class=""></path><path fill="url(#b)" d="m189.804 371.321-10.227 5.905c-1.232.712-1.078 1.954.345 2.776l11.809 6.818c1.423.822 3.576.911 4.808.199l10.227-5.904c1.232-.711 1.078-1.954-.345-2.776l-11.809-6.818c-1.423-.822-3.575-.911-4.808-.2z" opacity="1" data-original="url(#b)" class=""></path><path fill="url(#b)" d="m208.213 360.693-10.227 5.905c-1.232.711-1.078 1.954.345 2.776l11.809 6.818c1.423.822 3.575.911 4.808.199l10.227-5.904c1.232-.711 1.078-1.954-.345-2.776l-11.809-6.818c-1.424-.822-3.576-.911-4.808-.2z" opacity="1" data-original="url(#b)" class=""></path><path fill="url(#b)" d="m226.621 350.065-10.227 5.905c-1.232.711-1.078 1.954.345 2.776l11.809 6.818c1.423.822 3.576.911 4.808.199l10.227-5.904c1.232-.711 1.078-1.954-.345-2.776l-11.809-6.818c-1.423-.822-3.576-.911-4.808-.2z" opacity="1" data-original="url(#b)" class=""></path><path fill="url(#b)" d="m245.029 339.438-10.227 5.904c-1.232.711-1.078 1.954.345 2.776l11.809 6.818c1.423.822 3.576.911 4.808.199l10.227-5.905c1.232-.711 1.078-1.954-.345-2.776l-11.809-6.818c-1.423-.821-3.576-.91-4.808-.198z" opacity="1" data-original="url(#b)" class=""></path><path fill="url(#b)" d="m263.437 328.809-10.227 5.904c-1.232.711-1.078 1.954.345 2.776l11.809 6.818c1.423.822 3.575.911 4.808.199l10.227-5.905c1.232-.711 1.078-1.954-.345-2.776l-11.809-6.818c-1.423-.82-3.575-.909-4.808-.198z" opacity="1" data-original="url(#b)" class=""></path><path fill="url(#b)" d="m281.846 318.181-10.227 5.904c-1.232.712-1.078 1.954.345 2.776l11.809 6.818c1.423.822 3.576.911 4.808.199l10.227-5.904c1.232-.712 1.078-1.954-.345-2.776l-11.809-6.818c-1.424-.821-3.576-.91-4.808-.199z" opacity="1" data-original="url(#b)" class=""></path><path fill="url(#b)" d="m138.071 426.478-10.227 5.904c-1.232.712-1.078 1.954.345 2.776l11.809 6.818c1.423.821 3.576.911 4.808.199l10.227-5.904c1.232-.712 1.078-1.954-.345-2.776l-11.809-6.818c-1.423-.822-3.575-.911-4.808-.199z" opacity="1" data-original="url(#b)" class=""></path><path fill="url(#b)" d="m156.48 415.85-10.227 5.905c-1.232.711-1.078 1.954.345 2.776l11.809 6.818c1.423.822 3.575.911 4.808.199l10.227-5.904c1.232-.711 1.078-1.954-.345-2.776l-11.809-6.818c-1.424-.823-3.576-.912-4.808-.2z" opacity="1" data-original="url(#b)" class=""></path><path fill="url(#b)" d="m174.888 405.222-10.227 5.905c-1.232.711-1.078 1.954.345 2.776l11.809 6.818c1.423.822 3.576.911 4.808.199l10.227-5.904c1.232-.711 1.078-1.954-.345-2.776l-11.809-6.818c-1.423-.823-3.576-.912-4.808-.2z" opacity="1" data-original="url(#b)" class=""></path><path fill="url(#b)" d="m309.83 302.025-10.227 5.905c-1.232.711-1.078 1.954.345 2.776l11.809 6.818c1.423.822 3.576.911 4.808.199l10.227-5.904c1.232-.711 1.078-1.954-.345-2.776l-11.809-6.818c-1.423-.823-3.576-.912-4.808-.2z" opacity="1" data-original="url(#b)" class=""></path><path fill="url(#b)" d="m328.238 291.397-10.227 5.904c-1.232.711-1.078 1.954.345 2.776l11.809 6.818c1.423.822 3.576.911 4.808.199l10.227-5.905c1.232-.711 1.078-1.954-.345-2.776l-11.809-6.818c-1.423-.821-3.576-.91-4.808-.198z" opacity="1" data-original="url(#b)" class=""></path><path fill="url(#b)" d="m346.646 280.769-10.227 5.904c-1.232.711-1.078 1.954.345 2.776l11.809 6.818c1.423.822 3.576.911 4.808.199l10.227-5.905c1.232-.711 1.078-1.954-.345-2.776l-11.809-6.818c-1.423-.821-3.575-.91-4.808-.198z" opacity="1" data-original="url(#b)" class=""></path><path fill="url(#b)" d="m331.73 314.669-10.227 5.904c-1.232.712-1.078 1.954.345 2.776l11.809 6.818c1.423.821 3.575.911 4.808.199l10.227-5.904c1.232-.712 1.078-1.954-.345-2.776l-11.809-6.818c-1.423-.822-3.576-.911-4.808-.199z" opacity="1" data-original="url(#b)" class=""></path><path fill="url(#b)" d="m350.138 304.041-10.227 5.904c-1.232.711-1.078 1.954.345 2.776l11.809 6.818c1.423.822 3.576.911 4.808.199l10.227-5.905c1.232-.711 1.078-1.954-.345-2.776l-11.809-6.818c-1.423-.821-3.575-.91-4.808-.198z" opacity="1" data-original="url(#b)" class=""></path><path fill="url(#b)" d="m368.547 293.413-10.227 5.905c-1.232.711-1.078 1.954.345 2.776l11.809 6.818c1.423.822 3.576.911 4.808.199l10.227-5.904c1.232-.712 1.078-1.954-.345-2.776l-11.809-6.818c-1.424-.823-3.576-.912-4.808-.2z" opacity="1" data-original="url(#b)" class=""></path><path fill="url(#b)" d="m353.63 327.313-10.227 5.905c-1.232.711-1.078 1.954.345 2.776l11.809 6.818c1.423.822 3.576.911 4.808.199l10.227-5.904c1.232-.711 1.078-1.954-.345-2.776l-11.809-6.818c-1.423-.822-3.575-.912-4.808-.2z" opacity="1" data-original="url(#b)" class=""></path><path fill="url(#b)" d="m372.038 316.685-10.227 5.905c-1.232.711-1.078 1.954.345 2.776l11.809 6.818c1.423.822 3.576.911 4.808.199L389 326.478c1.232-.711 1.078-1.954-.345-2.776l-11.809-6.818c-1.423-.821-3.575-.911-4.808-.199z" opacity="1" data-original="url(#b)" class=""></path><path fill="url(#b)" d="m390.447 306.057-10.227 5.904c-1.232.711-1.078 1.954.345 2.776l11.809 6.818c1.423.822 3.575.911 4.808.199l10.227-5.904c1.232-.711 1.078-1.954-.345-2.776l-11.809-6.818c-1.423-.822-3.576-.911-4.808-.199z" opacity="1" data-original="url(#b)" class=""></path><path fill="url(#b)" d="m375.53 339.957-10.227 5.904c-1.232.711-1.078 1.954.345 2.776l11.809 6.818c1.423.822 3.576.911 4.808.199l10.227-5.905c1.232-.711 1.078-1.954-.345-2.776l-11.809-6.818c-1.423-.82-3.575-.91-4.808-.198z" opacity="1" data-original="url(#b)" class=""></path><path fill="url(#b)" d="m393.939 329.329-10.227 5.904c-1.232.712-1.078 1.954.345 2.776l11.809 6.818c1.423.822 3.576.911 4.808.199l10.227-5.904c1.232-.711 1.078-1.954-.345-2.776l-11.809-6.818c-1.424-.821-3.576-.911-4.808-.199z" opacity="1" data-original="url(#b)" class=""></path><path fill="url(#b)" d="m412.347 318.701-10.227 5.904c-1.232.711-1.078 1.954.345 2.776l33.709 19.462c1.423.822 3.575.911 4.808.199l10.227-5.904c1.232-.711 1.078-1.954-.345-2.776L417.155 318.9c-1.423-.821-3.576-.911-4.808-.199z" opacity="1" data-original="url(#b)" class=""></path><path fill="url(#b)" d="m415.839 341.973-28.635 16.532c-1.232.712-1.078 1.954.345 2.776l11.809 6.818c1.423.822 3.576.911 4.808.199l28.635-16.533c1.232-.712 1.078-1.954-.345-2.776l-11.809-6.818c-1.423-.82-3.576-.91-4.808-.198z" opacity="1" data-original="url(#b)" class=""></path><path fill="url(#b)" d="m193.296 394.594-10.227 5.904c-1.232.711-1.078 1.954.345 2.776l11.809 6.818c1.423.822 3.576.911 4.808.199l10.227-5.904c1.232-.712 1.078-1.954-.345-2.776l-11.809-6.818c-1.423-.822-3.576-.911-4.808-.199z" opacity="1" data-original="url(#b)" class=""></path><path fill="url(#b)" d="m211.704 383.966-10.227 5.904c-1.232.711-1.078 1.954.345 2.776l11.809 6.818c1.423.822 3.575.911 4.808.199l10.227-5.905c1.232-.711 1.078-1.954-.345-2.776l-11.809-6.818c-1.423-.821-3.575-.91-4.808-.198z" opacity="1" data-original="url(#b)" class=""></path><path fill="url(#b)" d="m230.113 373.338-10.227 5.904c-1.232.712-1.078 1.954.345 2.776l11.809 6.818c1.423.822 3.576.911 4.808.199l10.227-5.904c1.232-.712 1.078-1.954-.345-2.776l-11.809-6.818c-1.423-.822-3.576-.911-4.808-.199z" opacity="1" data-original="url(#b)" class=""></path><path fill="url(#b)" d="m248.521 362.71-10.227 5.904c-1.232.712-1.078 1.954.345 2.776l11.809 6.818c1.423.822 3.576.911 4.808.199l10.227-5.905c1.232-.711 1.078-1.954-.345-2.776l-11.809-6.818c-1.423-.821-3.576-.91-4.808-.198z" opacity="1" data-original="url(#b)" class=""></path><path fill="url(#b)" d="m266.929 352.081-10.227 5.905c-1.232.711-1.078 1.954.345 2.776l11.809 6.818c1.423.822 3.575.911 4.808.199l10.227-5.904c1.232-.711 1.078-1.954-.345-2.776l-11.809-6.818c-1.423-.822-3.575-.911-4.808-.2z" opacity="1" data-original="url(#b)" class=""></path><path fill="url(#b)" d="m285.337 341.453-10.227 5.904c-1.232.712-1.078 1.954.345 2.776l11.809 6.818c1.423.822 3.576.911 4.808.199l10.227-5.904c1.232-.712 1.078-1.954-.345-2.776l-11.809-6.818c-1.423-.821-3.575-.91-4.808-.199z" opacity="1" data-original="url(#b)" class=""></path><path fill="url(#b)" d="m303.746 330.826-10.227 5.904c-1.232.711-1.078 1.954.345 2.776l11.809 6.818c1.423.822 3.576.911 4.808.199l10.227-5.904c1.232-.712 1.078-1.954-.345-2.776l-11.809-6.818c-1.423-.822-3.576-.911-4.808-.199z" opacity="1" data-original="url(#b)" class=""></path><path fill="url(#b)" d="m171.314 432.573-21.569 12.453c-1.232.712-1.078 1.954.345 2.776l11.809 6.818c1.423.822 3.576.911 4.808.199l21.569-12.453c1.232-.712 1.078-1.954-.345-2.776l-11.809-6.818c-1.423-.821-3.576-.91-4.808-.199z" opacity="1" data-original="url(#b)" class=""></path><path fill="url(#b)" d="m189.722 421.945-10.227 5.904c-1.232.712-1.078 1.954.345 2.776l11.809 6.818c1.423.822 3.576.911 4.808.199l10.227-5.904c1.232-.712 1.078-1.954-.345-2.776l-11.809-6.818c-1.423-.821-3.575-.91-4.808-.199z" opacity="1" data-original="url(#b)" class=""></path><path fill="url(#b)" d="m208.131 411.317-10.227 5.905c-1.232.711-1.078 1.954.345 2.776l11.809 6.818c1.423.822 3.576.911 4.808.199l10.227-5.904c1.232-.711 1.078-1.954-.345-2.776l-11.809-6.818c-1.424-.822-3.576-.911-4.808-.2z" opacity="1" data-original="url(#b)" class=""></path><path fill="url(#b)" d="m226.539 400.689-10.227 5.904c-1.232.712-1.078 1.954.345 2.776l11.809 6.818c1.423.822 3.576.911 4.808.199l10.227-5.904c1.232-.711 1.078-1.954-.345-2.776l-11.809-6.818c-1.423-.821-3.576-.91-4.808-.199z" opacity="1" data-original="url(#b)" class=""></path><path fill="url(#b)" d="m244.947 390.061-10.227 5.904c-1.232.711-1.078 1.954.345 2.776l11.809 6.818c1.423.822 3.576.911 4.808.199l10.227-5.905c1.232-.711 1.078-1.954-.345-2.776l-11.809-6.818c-1.423-.82-3.576-.909-4.808-.198z" opacity="1" data-original="url(#b)" class=""></path><path fill="url(#b)" d="m263.355 379.433-10.227 5.904c-1.232.711-1.078 1.954.345 2.776l11.809 6.818c1.423.822 3.576.911 4.808.199l10.227-5.905c1.232-.711 1.078-1.954-.345-2.776l-11.809-6.818c-1.423-.82-3.575-.909-4.808-.198z" opacity="1" data-original="url(#b)" class=""></path><path fill="url(#b)" d="m281.764 368.805-10.227 5.904c-1.232.712-1.078 1.954.345 2.776l11.809 6.818c1.423.822 3.576.911 4.808.199l10.227-5.904c1.232-.712 1.078-1.954-.345-2.776l-11.809-6.818c-1.424-.821-3.576-.91-4.808-.199z" opacity="1" data-original="url(#b)" class=""></path><path fill="url(#b)" d="m300.172 358.177-10.227 5.905c-1.232.712-1.078 1.954.345 2.776l11.809 6.818c1.423.822 3.576.911 4.808.199l10.227-5.904c1.232-.712 1.078-1.954-.345-2.776l-11.809-6.818c-1.423-.822-3.576-.912-4.808-.2z" opacity="1" data-original="url(#b)" class=""></path><path fill="url(#b)" d="m325.646 343.47-17.293 9.984c-1.232.711-1.078 1.954.345 2.776l11.809 6.818c1.423.822 3.576.911 4.808.199l17.293-9.984c1.232-.711 1.078-1.954-.345-2.776l-11.809-6.818c-1.423-.822-3.576-.911-4.808-.199z" opacity="1" data-original="url(#b)" class=""></path><path fill="url(#b)" d="m203.534 439.259-31.889 18.411c-1.232.711-1.078 1.954.345 2.776l11.809 6.818c1.423.822 3.576.911 4.808.199l31.889-18.411c1.232-.711 1.078-1.954-.345-2.776l-11.809-6.818c-1.423-.821-3.576-.91-4.808-.199z" opacity="1" data-original="url(#b)" class=""></path><path fill="url(#b)" d="m221.942 428.631-10.227 5.904c-1.232.711-1.078 1.954.345 2.776l11.809 6.818c1.423.822 3.576.911 4.808.199l10.227-5.905c1.232-.711 1.078-1.954-.345-2.776l-11.809-6.818c-1.423-.82-3.575-.909-4.808-.198z" opacity="1" data-original="url(#b)" class=""></path><path fill="url(#b)" d="m240.35 418.003-10.227 5.905c-1.232.711-1.078 1.954.345 2.776l11.809 6.818c1.423.822 3.576.911 4.808.199l10.227-5.904c1.232-.712 1.078-1.954-.345-2.776l-11.809-6.818c-1.423-.822-3.575-.911-4.808-.2z" opacity="1" data-original="url(#b)" class=""></path><path fill="url(#b)" d="m258.759 407.375-10.227 5.904c-1.232.712-1.078 1.954.345 2.776l11.809 6.818c1.423.822 3.575.911 4.808.199l10.227-5.904c1.232-.712 1.078-1.954-.345-2.776l-11.809-6.818c-1.423-.821-3.576-.911-4.808-.199z" opacity="1" data-original="url(#b)" class=""></path><path fill="url(#b)" d="m277.167 396.747-10.227 5.905c-1.232.711-1.078 1.954.345 2.776l11.809 6.818c1.423.822 3.576.911 4.808.199l10.227-5.904c1.232-.711 1.078-1.954-.345-2.776l-11.809-6.818c-1.423-.822-3.576-.912-4.808-.2z" opacity="1" data-original="url(#b)" class=""></path><path fill="url(#b)" d="m295.575 386.119-10.227 5.904c-1.232.712-1.078 1.954.345 2.776l11.809 6.818c1.423.822 3.576.911 4.808.199l10.227-5.904c1.232-.711 1.078-1.954-.345-2.776l-11.809-6.818c-1.423-.821-3.575-.91-4.808-.199z" opacity="1" data-original="url(#b)" class=""></path><path fill="url(#b)" d="m313.984 375.491-10.227 5.904c-1.232.711-1.078 1.954.345 2.776l11.809 6.818c1.423.822 3.576.911 4.808.199l10.227-5.905c1.232-.711 1.078-1.954-.345-2.776l-11.809-6.818c-1.424-.82-3.576-.91-4.808-.198z" opacity="1" data-original="url(#b)" class=""></path><path fill="url(#b)" d="m347.546 356.114-25.381 14.654c-1.232.711-1.078 1.954.345 2.776l11.809 6.818c1.423.822 3.576.911 4.808.199l25.381-14.654c1.232-.711 1.078-1.954-.345-2.776l-11.809-6.818c-1.423-.822-3.576-.911-4.808-.199z" opacity="1" data-original="url(#b)" class=""></path><path fill="url(#b)" d="m203.772 464.41-10.227 5.905c-1.232.711-1.078 1.954.345 2.776l11.809 6.818c1.423.822 3.575.911 4.808.199l10.227-5.904c1.232-.712 1.078-1.954-.345-2.776l-11.809-6.818c-1.423-.822-3.576-.912-4.808-.2z" opacity="1" data-original="url(#b)" class=""></path><path fill="url(#b)" d="m222.18 453.782-10.227 5.904c-1.232.712-1.078 1.954.345 2.776l11.809 6.818c1.423.822 3.576.911 4.808.199l10.227-5.904c1.232-.712 1.078-1.954-.345-2.776l-11.809-6.818c-1.423-.821-3.576-.911-4.808-.199z" opacity="1" data-original="url(#b)" class=""></path><path fill="url(#b)" d="m240.588 443.154-10.227 5.905c-1.232.711-1.078 1.954.345 2.776l11.809 6.818c1.423.822 3.576.911 4.808.199l10.227-5.904c1.232-.711 1.078-1.954-.345-2.776l-11.809-6.818c-1.423-.822-3.575-.912-4.808-.2z" opacity="1" data-original="url(#b)" class=""></path><path fill="url(#b)" d="m351.038 379.386-10.227 5.905c-1.232.711-1.078 1.954.345 2.776l11.809 6.818c1.423.822 3.576.911 4.808.199L368 389.179c1.232-.711 1.078-1.954-.345-2.776l-11.809-6.818c-1.423-.822-3.576-.911-4.808-.199z" opacity="1" data-original="url(#b)" class=""></path><path fill="url(#b)" d="m369.446 368.758-10.227 5.904c-1.232.712-1.078 1.954.345 2.776l11.809 6.818c1.423.822 3.576.911 4.808.199l10.227-5.904c1.232-.711 1.078-1.954-.345-2.776l-11.809-6.818c-1.423-.822-3.575-.911-4.808-.199z" opacity="1" data-original="url(#b)" class=""></path><path fill="url(#b)" d="m332.63 390.014-83.86 48.417c-1.232.712-1.078 1.954.345 2.776l11.809 6.818c1.423.822 3.575.911 4.808.199l83.86-48.417c1.232-.711 1.078-1.954-.345-2.776l-11.809-6.818c-1.423-.822-3.576-.911-4.808-.199z" opacity="1" data-original="url(#b)" class=""></path><path fill="url(#b)" d="M380.108 253.886a8.31 8.31 0 0 1 1.346-4.541c1.806-2.774 5.238-7.585 9.098-10.658 5.688-4.528 19.522-13.08 28.074-14.589s40.676-4.014 56.056 3.029c15.379 7.043 24.938 24.136 23.177 34.701-1.761 10.564-21.38 28.172-46.282 28.423-17.312.175-45.097-11.675-60.424-18.915a19.288 19.288 0 0 1-11.045-17.45z" opacity="1" data-original="url(#b)" class=""></path><path fill="url(#b)" d="M434.815 250.269c-22.329-4.785-45.789 2.593-54.565 5.861a19.278 19.278 0 0 0 10.903 15.207c15.305 7.229 43.026 19.051 60.343 18.912 16.31-8.769 8.9-34.499-16.681-39.98z" opacity="1" data-original="url(#b)" class=""></path><path fill="#43386b20" d="M494.678 246.701c-4.141 12.477-16.923 18.769-22.241 20.9a2.806 2.806 0 0 1-3.181-.777c-2.467-2.864-7.613-8.615-13.842-14.309-9.225-8.435-17.175-10.28-34.943-11.25-13.053-.716-29.699 4.137-38.323 7.038-.25.369-.486.722-.694 1.043a8.317 8.317 0 0 0-.468.846c7.894-2.743 25.702-8.261 39.408-7.519 18.946 1.035 25.632 3.171 34.069 10.884 5.956 5.446 11.083 11.152 13.704 14.185a4.163 4.163 0 0 0 4.745 1.132c5.328-2.195 16.644-7.91 21.777-18.472a4.161 4.161 0 0 0-.003-3.682l-.008-.019zM416.216 229.393l-9.935-1.568a.706.706 0 0 1 .221-1.393l9.688 1.529c1.449-.271 14.915-2.641 28.736.023a.705.705 0 1 1-.267 1.385c-14.283-2.752-28.179-.029-28.319-.001z" opacity="1" data-original="#43386b20"></path><path fill="url(#bt)" d="M400.295 232.112s1.318-5.235 6.726-6.87 9.181 3.435 9.181 3.435a75.884 75.884 0 0 0-15.557 3.321z" opacity="1" data-original="url(#bt)"></path></g></svg>
